<svg width="136" height="134" viewBox="0 0 136 134" fill="none" xmlns="http://www.w3.org/2000/svg">
<g clip-path="url(#clip0)" filter="url(#filter0_d)">
<path d="M68 2.66666C32.64 2.66666 3.99999 30.8267 3.99999 65.5573C3.99999 93.3493 22.336 116.917 47.76 125.227C50.96 125.819 52.1333 123.872 52.1333 122.203C52.1333 120.709 52.08 116.752 52.0533 111.509C34.2507 115.301 30.496 103.072 30.496 103.072C27.584 95.8133 23.376 93.872 23.376 93.872C17.5787 89.9733 23.824 90.0533 23.824 90.0533C30.2507 90.4907 33.6267 96.5333 33.6267 96.5333C39.3333 106.149 48.608 103.371 52.2667 101.765C52.8427 97.696 54.4907 94.928 56.32 93.3547C42.1067 91.7813 27.168 86.3733 27.168 62.2773C27.168 55.4133 29.648 49.8027 33.7547 45.4027C33.0347 43.8133 30.8747 37.4187 34.3147 28.7573C34.3147 28.7573 39.6747 27.072 51.9147 35.2053C57.0347 33.808 62.4747 33.1147 67.9147 33.0827C73.3547 33.1147 78.7947 33.808 83.9147 35.2053C96.0747 27.072 101.435 28.7573 101.435 28.7573C104.875 37.4187 102.715 43.8133 102.075 45.4027C106.155 49.8027 108.635 55.4133 108.635 62.2773C108.635 86.4373 93.6747 91.7547 79.4347 93.3013C81.6747 95.1893 83.7547 99.0453 83.7547 104.939C83.7547 113.355 83.6747 120.117 83.6747 122.16C83.6747 123.808 84.7947 125.776 88.0747 125.147C113.68 116.891 132 93.3067 132 65.5573C132 30.8267 103.344 2.66666 68 2.66666V2.66666Z" fill="#212121"/>
</g>
<defs>
<filter id="filter0_d" x="0" y="0" width="136" height="136" filterUnits="userSpaceOnUse" color-interpolation-filters="sRGB">
<feFlood flood-opacity="0" result="BackgroundImageFix"/>
<feColorMatrix in="SourceAlpha" type="matrix" values="0 0 0 0 0 0 0 0 0 0 0 0 0 0 0 0 0 0 127 0"/>
<feOffset dy="4"/>
<feGaussianBlur stdDeviation="2"/>
<feColorMatrix type="matrix" values="0 0 0 0 0 0 0 0 0 0 0 0 0 0 0 0 0 0 0.25 0"/>
<feBlend mode="normal" in2="BackgroundImageFix" result="effect1_dropShadow"/>
<feBlend mode="normal" in="SourceGraphic" in2="effect1_dropShadow" result="shape"/>
</filter>
<clipPath id="clip0">
<rect width="128" height="128" fill="white" transform="translate(4)"/>
</clipPath>
</defs>
</svg>
