<?xml version="1.0" encoding="UTF-8" standalone="no"?>
<svg
   xmlns:dc="http://purl.org/dc/elements/1.1/"
   xmlns:cc="http://creativecommons.org/ns#"
   xmlns:rdf="http://www.w3.org/1999/02/22-rdf-syntax-ns#"
   xmlns:svg="http://www.w3.org/2000/svg"
   xmlns="http://www.w3.org/2000/svg"
   xmlns:xlink="http://www.w3.org/1999/xlink"
   xmlns:sodipodi="http://sodipodi.sourceforge.net/DTD/sodipodi-0.dtd"
   xmlns:inkscape="http://www.inkscape.org/namespaces/inkscape"
   width="264px"
   height="280px"
   viewBox="0 0 264 280"
   version="1.1"
   id="svg1059"
   sodipodi:docname="avataaars.svg"
   inkscape:version="1.0.1 (3bc2e813f5, 2020-09-07)">
  <metadata
     id="metadata1063">
    <rdf:RDF>
      <cc:Work
         rdf:about="">
        <dc:format>image/svg+xml</dc:format>
        <dc:type
           rdf:resource="http://purl.org/dc/dcmitype/StillImage" />
        <dc:title></dc:title>
      </cc:Work>
    </rdf:RDF>
  </metadata>
  <sodipodi:namedview
     pagecolor="#000000"
     bordercolor="#666666"
     borderopacity="1"
     objecttolerance="10"
     gridtolerance="10"
     guidetolerance="10"
     inkscape:pageopacity="0"
     inkscape:pageshadow="2"
     inkscape:window-width="1920"
     inkscape:window-height="1057"
     id="namedview1061"
     showgrid="false"
     inkscape:zoom="1.4142136"
     inkscape:cx="191.96877"
     inkscape:cy="229.87945"
     inkscape:window-x="-8"
     inkscape:window-y="-8"
     inkscape:window-maximized="1"
     inkscape:current-layer="svg1059" />
  <desc
     id="desc949">Created with getavataaars.com</desc>
  <defs
  
     id="defs954">
    <circle
       id="path-1"
       cx="120"
       cy="120"
       r="120" />
    <path
       d="M12,160 C12,226.27417 65.72583,280 132,280 C198.27417,280 252,226.27417 252,160 L264,160 L264,-1.42108547e-14 L-3.19744231e-14,-1.42108547e-14 L-3.19744231e-14,160 L12,160 Z"
       id="path-3" />
    <path
       d="M124,144.610951 L124,163 L128,163 L128,163 C167.764502,163 200,195.235498 200,235 L200,244 L0,244 L0,235 C-4.86974701e-15,195.235498 32.235498,163 72,163 L72,163 L76,163 L76,144.610951 C58.7626345,136.422372 46.3722246,119.687011 44.3051388,99.8812385 C38.4803105,99.0577866 34,94.0521096 34,88 L34,74 C34,68.0540074 38.3245733,63.1180731 44,62.1659169 L44,56 L44,56 C44,25.072054 69.072054,5.68137151e-15 100,0 L100,0 L100,0 C130.927946,-5.68137151e-15 156,25.072054 156,56 L156,62.1659169 C161.675427,63.1180731 166,68.0540074 166,74 L166,88 C166,94.0521096 161.51969,99.0577866 155.694861,99.8812385 C153.627775,119.687011 141.237365,136.422372 124,144.610951 Z"
       id="path-5" />
    <mask
       id="mask-4"
       fill="#ffffff">
      <use
         xlink:href="#path-3"
         id="use963"
         x="0"
         y="0"
         width="100%"
         height="100%" />
    </mask>
  </defs>
  <g
     id="Mask"
     style="fill:none;fill-rule:evenodd;stroke:none;stroke-width:1"
     transform="translate(-2.9448826,-1.5589701)" />
  <g
     id="g1357"
     transform="matrix(1,0,0,1.0003382,-2.0787401,-10.392646)">
    <g
       id="Circle"
       stroke-width="1"
       fill-rule="evenodd"
       transform="translate(14.598424,36.36229)"
       style="fill:none;stroke:none">
      <mask
         id="mask-2"
         fill="#ffffff">
        <use
           xlink:href="#path-1"
           id="use956"
           x="0"
           y="0"
           width="100%"
           height="100%" />
      </mask>
      <use
         id="Circle-Background"
         fill="#e6e6e6"
         xlink:href="#path-1"
         x="0"
         y="0"
         width="100%"
         height="100%" />
      <g
         id="Color/Palette/Blue-01"
         mask="url(#mask-2)"
         fill="#9B9B9B">
        <rect
           id="ðŸ–Color"
           x="0"
           y="0"
           width="240"
           height="240" />
      </g>
    </g>
    <g
       id="Avataaar"
       stroke-width="1"
       fill-rule="evenodd"
       mask="url(#mask-4)"
       style="fill:none;stroke:none"
       transform="translate(2.7716528,-3.1180253)">
      <g
         id="Body"
         transform="translate(32,36)">
        <mask
           id="mask-6"
           fill="#ffffff">
          <use
             xlink:href="#path-5"
             id="use967"
             x="0"
             y="0"
             width="100%"
             height="100%" />
        </mask>
        <use
           fill="#d0c6ac"
           xlink:href="#path-5"
           id="use970"
           x="0"
           y="0"
           width="100%"
           height="100%" />
        <g
           id="Skin/ðŸ‘¶ðŸ½-03-Brown"
           mask="url(#mask-6)"
           fill="#d08b5b">
          <g
             transform="translate(-32)"
             id="Color">
            <rect
               x="0"
               y="0"
               width="264"
               height="244"
               id="rect972" />
          </g>
        </g>
        <path
           d="m 156,79 v 23 c 0,30.92795 -25.07205,56 -56,56 -30.927946,0 -56,-25.07205 -56,-56 V 79 94 c 0,30.92795 25.072054,56 56,56 30.92795,0 56,-25.07205 56,-56 z"
           id="Neck-Shadow"
           fill-opacity="0.1"
           fill="#000000"
           mask="url(#mask-6)" />
      </g>
      <g
         id="Clothing/Blazer-+-Shirt"
         transform="translate(0,170)">
        <defs
           id="defs979">
          <path
             d="M 133.96047,0.29491611 C 170.93647,3.3249982 200,34.294286 200,72.051723 V 81 H 0 V 72.051723 C 0,33.952563 29.591985,2.7649812 67.045406,0.21952641 67.01526,0.59311455 67,0.96922718 67,1.3476251 67,13.210718 81.998461,22.827654 100.5,22.827654 c 18.50154,0 33.5,-9.616936 33.5,-21.4800289 0,-0.35295601 -0.0133,-0.70392372 -0.0395,-1.05270899 z"
             id="react-path-148" />
        </defs>
        <g
           id="Shirt"
           transform="translate(32,29)">
          <mask
             id="react-mask-149"
             fill="#ffffff">
            <use
               xlink:href="#react-path-148"
               id="use981"
               x="0"
               y="0"
               width="100%"
               height="100%" />
          </mask>
          <use
             id="Clothes"
             fill="#e6e6e6"
             xlink:href="#react-path-148"
             x="0"
             y="0"
             width="100%"
             height="100%" />
          <g
             id="Color/Palette/Black"
             mask="url(#react-mask-149)"
             fill="#262e33">
            <g
               transform="translate(-32,-29)"
               id="g987">
              <rect
                 x="0"
                 y="0"
                 width="264"
                 height="110"
                 id="rect985" />
            </g>
          </g>
          <g
             id="Shadowy"
             opacity="0.6"
             mask="url(#react-mask-149)"
             fill-opacity="0.16"
             fill="#000000">
            <g
               transform="translate(60,-25)"
               id="Hola-ðŸ‘‹ðŸ¼">
              <ellipse
                 cx="40.5"
                 cy="27.847626"
                 rx="39.635105"
                 ry="26.913828"
                 id="ellipse990" />
            </g>
          </g>
        </g>
        <g
           id="Blazer"
           transform="translate(32,28)">
          <path
             d="M 68.784807,1.1222285 C 30.512317,2.8040974 0,34.364644 0,73.051723 v 0 V 82 H 69.361677 C 65.960741,69.919994 64,55.70873 64,40.5 64,26.172974 65.739989,12.731112 68.784807,1.1222285 Z M 131.63832,82 H 200 V 73.051723 C 200,34.706764 170.02495,3.3628517 132.22872,1.1738423 135.26516,12.770946 137,26.194202 137,40.5 c 0,15.20873 -1.96074,29.419994 -5.36168,41.5 z"
             id="Saco"
             fill="#3a4c5a" />
          <path
             d="m 149,58 9.55585,-7.16689 v 0 c 1.44305,-1.082283 3.43193,-1.064837 4.85577,0.04259 L 170,56 Z"
             id="Pocket-hanky"
             fill="#e6e6e6" />
          <path
             d="m 69,0 c -4,19.333333 -2.333333,46.666667 5,82 H 58 L 44,46 50,37 44,31 63,1 c 2.027659,-0.63076136 4.027659,-0.9640947 6,-1 z"
             id="Wing"
             fill="#2f4351" />
          <path
             d="m 151,0 c -4,19.333333 -2.33333,46.666667 5,82 h -16 l -14,-36 6,-9 -6,-6 19,-30 c 2.02766,-0.63076136 4.02766,-0.9640947 6,-1 z"
             id="path998"
             fill="#2f4351"
             transform="matrix(-1,0,0,1,282,0)" />
        </g>
      </g>
      <g
         id="Face"
         transform="translate(76,82)"
         fill="#000000">
        <g
           id="Mouth/Default"
           transform="translate(2,52)"
           fill-opacity="0.7">
          <path
             d="m 40,15 c 0,7.731987 6.268014,14 14,14 v 0 c 7.731986,0 14,-6.268013 14,-14"
             id="Mouth" />
        </g>
        <g
           id="Nose/Default"
           transform="translate(28,40)"
           fill-opacity="0.16">
          <path
             d="m 16,8 c 0,4.418278 5.372583,8 12,8 v 0 c 6.627417,0 12,-3.581722 12,-8"
             id="Nose" />
        </g>
        <g
           id="Eyes/Default-ðŸ˜€"
           transform="translate(0,8)"
           fill-opacity="0.6">
          <circle
             id="Eye"
             cx="30"
             cy="22"
             r="6" />
          <circle
             id="circle1007"
             cx="82"
             cy="22"
             r="6" />
        </g>
        <g
           id="Eyebrow/Natural/Default-Natural"
           fill-opacity="0.6">
          <path
             d="M 26.039093,6.2101236 C 20.277555,6.9834622 11.292931,12.005248 12.04426,17.817811 c 0.02469,0.190243 0.31247,0.249536 0.436648,0.09068 2.486496,-3.188159 21.711889,-7.871946 28.713359,-6.893779 0.640785,0.08973 1.063799,-0.571681 0.626783,-0.984508 C 38.076566,6.4948543 31.200379,5.5122482 26.039093,6.2101236"
             id="Eyebrow"
             transform="rotate(5,27,12)" />
          <path
             d="M 85.039093,6.2101236 C 79.277555,6.9834622 70.292931,12.005248 71.04426,17.817811 c 0.02469,0.190243 0.31247,0.249536 0.436648,0.09068 2.486496,-3.188159 21.711889,-7.871946 28.713362,-6.893779 0.64078,0.08973 1.0638,-0.571681 0.62678,-0.984508 C 97.076566,6.4948543 90.200379,5.5122482 85.039093,6.2101236"
             id="path1011"
             transform="matrix(-0.9961947,0.08715574,0.08715574,0.9961947,170.62688,-7.4497303)" />
        </g>
      </g>
      <g
         id="Top"
         stroke-width="1"
         fill-rule="evenodd">
        <defs
           id="defs1018">
          <rect
             id="react-path-79"
             x="0"
             y="0"
             width="264"
             height="280" />
          <path
             d="m 65.180219,77.737299 c 2.182966,-1.632766 15.226292,-2.258648 17.57761,-3.64785 0.733817,-0.434063 1.303243,-0.87373 1.741949,-1.309442 0.439036,0.435712 1.008792,0.875379 1.742609,1.309442 2.350988,1.389202 15.394313,2.015084 17.577283,3.64785 2.21036,1.653529 3.8239,5.447384 3.6473,8.413651 -0.21193,3.559191 -4.10548,12.051943 -13.794643,13.030152 -2.114634,-2.352909 -5.435462,-3.870649 -9.172549,-3.870649 -3.736426,0 -7.057584,1.51774 -9.172219,3.870649 C 65.638731,98.202893 61.745176,89.710141 61.53325,86.15095 c -0.176605,-2.966267 1.436935,-6.760122 3.646969,-8.413651 m 37.961421,17.169082 c 0.001,-6.59e-4 0.003,-0.0013 0.004,-0.0016 -0.002,3.3e-4 -0.003,9.89e-4 -0.004,0.0016 m -37.296265,-0.0049 c 0.004,0.0016 0.01122,0.0043 0.0165,0.0063 -0.0053,-0.002 -0.01089,-0.0043 -0.0165,-0.0063 M 144.86259,55.985334 c -0.3882,-5.954946 -1.58482,-11.833428 -2.6286,-17.699056 C 141.95274,36.707235 140.42371,26 139.73478,26 c -0.23239,9.109406 -1.03289,18.080386 -2.06512,27.139365 -0.30864,2.708202 -0.63181,5.417063 -0.8444,8.134822 -0.17165,2.195368 0.13435,4.847869 -0.39744,6.971387 -0.67869,2.706883 -4.07973,5.232824 -6.72484,6.165221 -6.60007,2.326542 -12.10518,-7.303026 -17.742,-10.119661 C 104.64327,60.634715 92.063739,59.763989 84.581643,64.529792 76.936147,59.763989 64.356614,60.634715 57.038909,64.291134 51.402415,67.107769 45.896971,76.737337 39.297238,74.410795 36.65213,73.478398 33.250427,70.952457 32.572397,68.245574 32.040272,66.122056 32.346277,63.469555 32.174954,61.274187 31.962368,58.556428 31.638868,55.847567 31.330223,53.139365 30.298323,44.080386 29.497495,35.109406 29.265433,26 28.57618,26 27.046817,36.707235 26.7659,38.286278 c -1.043783,5.865628 -2.240073,11.74411 -2.628274,17.699056 -0.399093,6.119408 0.07724,12.182128 1.331963,18.177942 0.599135,2.864426 1.298952,5.712371 2.049274,8.540872 0.833838,3.142595 -0.319869,9.262004 0.05348,12.487984 0.706419,6.103588 3.581939,18.007548 6.810999,23.258828 1.560722,2.53814 3.390149,4.12278 5.433151,6.16819 1.966089,1.96894 2.787383,5.0209 4.909609,7.11772 3.955945,3.90822 9.719529,6.23443 15.639581,6.80626 5.31167,4.50708 14.139922,7.45687 24.134095,7.45687 9.994833,0 18.822752,-2.94979 24.134762,-7.45687 5.91939,-0.57183 11.6833,-2.89804 15.63958,-6.80626 2.1219,-2.09682 2.94319,-5.14878 4.90961,-7.11772 2.04267,-2.04541 3.8721,-3.63005 5.43315,-6.16819 3.22873,-5.25128 6.10458,-17.15524 6.81067,-23.258828 0.37334,-3.22598 -0.78037,-9.345389 0.0538,-12.487984 0.75033,-2.828501 1.44981,-5.676446 2.04928,-8.540872 1.25406,-5.995814 1.73072,-12.058534 1.33196,-18.177942 z"
             id="react-path-80" />
          <path
             d="m 185.83168,73.928751 c 1.75719,0.988615 3.14853,10.899175 3.21585,14.688905 0.0421,2.338555 0.0798,11.256354 -2.39348,10.485473 -0.75304,-0.234706 -1.90237,-4.955881 -2.06584,-7.719033 -0.16347,-2.763151 -1.73314,-12.164093 -4.14145,-16.48937 -0.55027,-0.988389 -2.12598,-2.723833 -1.44521,-3.559919 0.84451,-1.036747 1.66465,-0.435217 2.69563,-0.02011 1.11522,0.449453 3.93722,2.503331 4.1345,2.614056 z m 0.80506,-2.972163 c -0.74608,0.962214 -5.84091,-1.738895 -7.96557,-2.912616 -17.84559,-9.859916 -21.30961,-12.995289 -49.42546,-12.586127 -28.11586,0.409162 -47.378232,13.582178 -48.461728,14.929596 -0.753824,0.937442 -1.716205,3.440481 -2.507573,10.413099 -0.791369,6.972618 0.218797,19.47725 -2.645923,19.46208 -2.438977,-0.0129 -2.969595,-23.785585 -1.916755,-33.216228 0.161645,-1.447907 0.784635,-4.037996 0.333691,-5.340512 -0.394123,-1.137631 -2.322045,-1.135314 -2.0143,-3.030815 0.349785,-2.157726 2.525347,-1.085981 3.472886,-2.117664 1.794577,-1.954435 -0.973813,-2.41697 -1.432968,-4.126729 -0.682491,-2.541461 1.28977,-3.197023 3.066611,-3.99959 1.966349,-0.887326 1.710826,-0.107936 3.306698,-1.846168 -2.131552,-1.562423 -2.902721,-3.691013 0.01609,-4.832949 1.23952,-0.485049 4.464437,0.156938 5.435623,-0.571795 0.253225,-0.190047 0.353398,-1.279339 0.509405,-1.502164 1.550877,-2.218647 1.168249,-3.824774 1.010928,-6.315578 -0.129404,-2.038201 -0.111997,-3.909202 2.328285,-4.112823 1.628388,-0.135748 2.952644,1.194579 4.411559,1.586261 1.618534,0.434724 1.010598,0.75191 2.278691,-0.120849 2.226143,-1.533286 0.711065,-4.520728 2.476411,-6.302996 2.422549,-2.445776 4.010539,1.139287 5.955539,1.40979 4.22238,0.58835 2.86725,-3.699952 5.36698,-5.271314 2.98779,-1.876629 3.27681,2.250762 5.14299,2.397767 1.61722,0.126808 4.52881,-2.993733 5.93846,-3.57513 4.18263,-1.725982 6.25507,3.130805 10.2367,2.511332 2.88926,-0.449623 3.66929,-0.816804 6.27675,0.827067 2.53093,1.595532 3.1323,0.45492 5.99824,0.432075 2.02481,-0.01523 3.26498,1.676649 4.95873,1.853121 0.84474,0.0884 1.65335,-0.79164 2.55983,-0.736348 3.2374,0.196338 3.44202,4.382663 6.014,5.535194 2.34996,1.053204 5.11277,-0.426446 7.445,-0.700259 5.69049,-0.667812 1.79359,4.647206 1.95419,7.819397 2.2337,0.521139 4.5009,-1.563747 6.72441,-1.180012 3.50146,0.604574 2.17983,4.233341 1.36827,6.679779 2.42616,-0.0437 8.7594,-2.736805 10.33129,0.707544 0.81059,1.775977 -1.07792,4.146926 -1.04705,5.95237 0.0433,2.541461 1.91084,4.644226 2.57166,7.049608 0.8917,3.247018 2.1625,11.950002 -0.0726,14.832586 z"
             id="react-path-81" />
        </defs>
        <mask
           id="react-mask-78"
           fill="#ffffff">
          <use
             xlink:href="#react-path-79"
             id="use1020"
             x="0"
             y="0"
             width="100%"
             height="100%" />
        </mask>
        <g
           id="g1023" />
        <g
           id="Top/Short-Hair/Dreads-01"
           mask="url(#react-mask-78)">
          <g
             transform="translate(-1)"
             id="g1049">
            <g
               id="Facial-Hair/Beard-Light"
               transform="translate(49,72)">
              <defs
                 id="defs1026">
                <path
                   d="m 101.4284,98.168569 c -2.513563,2.294051 -5.19118,3.325741 -8.575456,2.604291 -0.582366,-0.12403 -2.956605,-4.538289 -8.85311,-4.538289 -5.896504,0 -8.270409,4.414259 -8.853109,4.538289 -3.384276,0.72145 -6.061893,-0.31024 -8.575459,-2.604291 -4.725089,-4.312965 -8.654644,-10.260383 -6.293436,-16.749388 1.230554,-3.382239 3.231918,-7.095447 6.872796,-8.17327 3.88779,-1.150369 9.346267,-0.002 13.264128,-0.78764 1.269312,-0.254746 2.6559,-0.707405 3.58508,-1.458271 0.929181,0.750866 2.316103,1.203525 3.584747,1.458271 3.918195,0.785634 9.376671,-0.362729 13.264459,0.78764 3.64088,1.077823 5.64224,4.791031 6.87313,8.17327 2.36121,6.489005 -1.56834,12.436423 -6.29377,16.749388 M 140.08103,26 c -3.41034,8.400253 -2.09326,18.858035 -2.72436,27.675872 -0.51263,7.167322 -2.01955,17.909881 -8.38381,22.538659 -3.2545,2.367083 -9.1785,6.345368 -13.43099,5.235663 -2.92733,-0.763809 -3.23969,-9.160098 -7.08659,-12.303214 -4.36356,-3.564665 -9.812295,-5.130937 -15.306132,-4.889108 -2.37061,0.104396 -7.165011,0.07962 -9.149215,1.902586 -1.984203,-1.822967 -6.778268,-1.79819 -9.148878,-1.902586 -5.494174,-0.241829 -10.942908,1.324443 -15.306473,4.889108 -3.846898,3.143116 -4.158918,11.539405 -7.086249,12.303214 -4.25249,1.109705 -10.176491,-2.86858 -13.431325,-5.235663 C 32.66241,71.585753 31.156165,60.843194 30.642864,53.675872 30.012093,44.858035 31.329173,34.400253 27.918834,26 c -1.659057,0 -0.5648,16.128869 -0.5648,16.128869 V 62.48512 c 0.03164,15.288085 9.581061,38.17033 30.753978,46.90788 5.178115,2.13682 16.907299,5.607 25.891921,5.607 8.984622,0 20.713807,-3.13981 25.891927,-5.27663 21.17291,-8.73756 30.72233,-31.950165 30.75431,-47.23825 V 42.128869 c 0,0 1.09392,-16.128869 -0.56514,-16.128869"
                   id="react-path-139" />
              </defs>
              <mask
                 id="react-mask-138"
                 fill="#ffffff">
                <use
                   xlink:href="#react-path-139"
                   id="use1028"
                   x="0"
                   y="0"
                   width="100%"
                   height="100%" />
              </mask>
              <use
                 id="Lite-Beard"
                 fill="#331b0c"
                 fill-rule="evenodd"
                 xlink:href="#react-path-139"
                 x="0"
                 y="0"
                 width="100%"
                 height="100%" />
              <g
                 id="Color/Hair/Brown"
                 mask="url(#react-mask-138)"
                 fill="#4a312c">
                <g
                   transform="translate(-32)"
                   id="g1034">
                  <rect
                     x="0"
                     y="0"
                     width="264"
                     height="244"
                     id="rect1032" />
                </g>
              </g>
            </g>
            <g
               id="Hair"
               stroke-width="1"
               fill-rule="evenodd"
               transform="translate(1)">
              <mask
                 id="react-mask-77"
                 fill="#ffffff">
                <use
                   xlink:href="#react-path-81"
                   id="use1038"
                   x="0"
                   y="0"
                   width="100%"
                   height="100%" />
              </mask>
              <use
                 id="Dreads-With-Cut"
                 fill="#2e3257"
                 xlink:href="#react-path-81"
                 x="0"
                 y="0"
                 width="100%"
                 height="100%" />
              <g
                 id="g1046"
                 mask="url(#react-mask-77)"
                 fill="#2c1b18">
                <g
                   id="g1044">
                  <rect
                     x="0"
                     y="0"
                     width="264"
                     height="280"
                     id="rect1042" />
                </g>
              </g>
            </g>
          </g>
        </g>
      </g>
    </g>
  </g>
</svg>
